<?xml version="1.0" standalone="no"?><!DOCTYPE svg PUBLIC "-//W3C//DTD SVG 1.1//EN" "http://www.w3.org/Graphics/SVG/1.1/DTD/svg11.dtd"><svg class="icon" width="200px" height="200.00px" viewBox="0 0 1024 1024" version="1.1" xmlns="http://www.w3.org/2000/svg"><path fill="#000000" d="M322.79 896.31c-5.67 0-11.12-1.09-16.34-3.26-23.35-9.75-29.31-37.01-29.91-40.09l-0.34-1.72v-78.66h-36.6c-70.24 0-127.38-59.23-127.38-132.02V260.68c0-72.8 57.14-132.02 127.38-132.02h437.3c70.24 0 127.38 59.23 127.38 132.02v209.25h-36.1V260.68c0-52.89-40.95-95.92-91.28-95.92H239.6c-50.33 0-91.28 43.03-91.28 95.92v379.87c0 52.89 40.95 95.92 91.28 95.92h72.71V847.3c1.23 4.25 4.31 10.9 8.09 12.44 3.53 1.44 10.45-0.91 18.53-6.28 59.52-39.54 165.77-113.05 166.84-113.78l4.63-3.21h50.49l40.29 36.1h-79.51c-21.22 14.66-110.11 75.98-162.77 110.96-12.79 8.51-24.88 12.78-36.11 12.78z"  /><path fill="#000000" d="M861.54 506.03c8.9 0 16.13 7.23 16.13 16.11v199.17c0 8.88-7.24 16.11-16.13 16.11H601.19c-8.9 0-16.13-7.23-16.13-16.11V522.14c0-8.88 7.24-16.11 16.13-16.11h260.35m0-36.1H601.19c-28.83 0-52.23 23.37-52.23 52.21v199.17c0 28.83 23.4 52.21 52.23 52.21h260.36c28.86 0 52.23-23.37 52.23-52.21V522.14c0-28.84-23.38-52.21-52.24-52.21z"  /><path fill="#000000" d="M804.4 640.5c-9.9 0-17.94-8.41-17.94-18.78 0-10.37 8.04-18.75 17.94-18.75 9.92 0 17.97 8.38 17.97 18.75s-8.04 18.78-17.97 18.78z m-127.71 0c-10.13 0-18.36-8.41-18.36-18.78 0-10.37 8.23-18.75 18.36-18.75 10.13 0 18.36 8.38 18.36 18.75s-8.23 18.78-18.36 18.78zM377.19 395.06c13.4 0 24.24 11.18 24.24 24.96 0 13.8-10.83 24.98-24.24 24.98-13.38 0-24.24-11.18-24.24-24.98 0-13.78 10.86-24.96 24.24-24.96zM522.03 394.01c14.89 0 26.93 12.61 26.93 28.15 0 15.57-12.04 28.18-26.93 28.18s-26.93-12.61-26.93-28.18c0-15.54 12.04-28.15 26.93-28.15z"  /></svg>