<?xml version="1.0" standalone="no"?><!DOCTYPE svg PUBLIC "-//W3C//DTD SVG 1.1//EN" "http://www.w3.org/Graphics/SVG/1.1/DTD/svg11.dtd"><svg class="icon" width="200px" height="200.00px" viewBox="0 0 1024 1024" version="1.1" xmlns="http://www.w3.org/2000/svg"><path fill="#000000" d="M683.3 459.21H351.77c-9.66 0-17.5-7.84-17.5-17.5s7.84-17.5 17.5-17.5H683.3c9.66 0 17.5 7.84 17.5 17.5s-7.83 17.5-17.5 17.5zM612.07 598.95H420.04c-9.66 0-17.5-7.84-17.5-17.5s7.84-17.5 17.5-17.5h192.03c9.66 0 17.5 7.84 17.5 17.5 0 9.67-7.84 17.5-17.5 17.5z"  /><path fill="#000000" d="M509.29 863.11c-65.81 0-126.19-14.87-178.85-40.72L170.2 894.38c-0.55 0.24-1.11 0.19-1.66 0.38-1.28 0.41-2.51 0.77-3.87 0.85-1.14 0.09-2.22-0.05-3.35-0.2-0.72-0.1-1.42 0.05-2.13-0.14-0.27-0.07-0.46-0.27-0.73-0.38-1.31-0.41-2.44-1.08-3.62-1.79-0.67-0.41-1.37-0.73-1.96-1.23-1.04-0.85-1.83-1.93-2.65-3.04-0.48-0.65-1.01-1.23-1.38-1.95-0.19-0.36-0.53-0.6-0.7-0.99-0.43-0.97-0.43-1.98-0.65-2.97-0.19-0.72-0.41-1.4-0.48-2.13-0.17-1.64-0.02-3.19 0.29-4.78 0.09-0.41-0.03-0.8 0.09-1.21l0.39-1.52c0.03-0.07 0.03-0.14 0.07-0.2l43.79-163.83c0.26-1.01 0.89-1.76 1.31-2.66-42.84-59.77-67.69-132.37-67.69-211.03 0-203 162.7-367.57 384.01-367.57S893.3 292.56 893.3 495.55 730.6 863.11 509.29 863.11z m0-701.7c-202.86 0-350.62 149.59-350.62 334.14 0 76.65 25.79 147.05 70.13 203.44 0 0-2.51 9.98-4.88 18.89l-35.16 131.54 132.95-59.72c8.21-3.67 28.14 5.03 28.14 5.03 47.14 22.17 100.88 34.95 159.44 34.95 202.86 0 350.61-149.59 350.61-334.14S712.15 161.41 509.29 161.41z"  /></svg>