<?xml version="1.0" standalone="no"?><!DOCTYPE svg PUBLIC "-//W3C//DTD SVG 1.1//EN" "http://www.w3.org/Graphics/SVG/1.1/DTD/svg11.dtd"><svg class="icon" width="200px" height="200.00px" viewBox="0 0 1024 1024" version="1.1" xmlns="http://www.w3.org/2000/svg"><path fill="#000000" d="M739.27 895.64H286.73c-67.75 0-122.67-54.84-122.67-122.51v-521.6c0-67.66 54.92-122.51 122.67-122.51h452.54c67.75 0 122.67 54.85 122.67 122.51v521.61c0 67.66-54.92 122.5-122.67 122.5z m87.78-650.11c0-45.11-36.62-81.66-81.79-81.66H280.73c-45.15 0-81.77 36.55-81.77 81.66v533.59c0 45.11 36.62 81.66 81.77 81.66h464.53c45.17 0 81.79-36.55 81.79-81.66V245.53zM617.68 390.37H303.64c-9.63 0-17.45-7.81-17.45-17.43s7.82-17.43 17.45-17.43h314.05c9.63 0 17.45 7.81 17.45 17.43-0.01 9.63-7.83 17.43-17.46 17.43z m-314.04 69.7H513c9.63 0 17.45 7.81 17.45 17.43s-7.82 17.43-17.45 17.43H303.64c-9.63 0-17.45-7.81-17.45-17.43s7.82-17.43 17.45-17.43z m0 104.53h279.15c9.63 0 17.45 7.81 17.45 17.43 0 9.62-7.82 17.43-17.45 17.43H303.64c-9.63 0-17.45-7.81-17.45-17.43 0-9.62 7.82-17.43 17.45-17.43z"  /></svg>