<?xml version="1.0" standalone="no"?><!DOCTYPE svg PUBLIC "-//W3C//DTD SVG 1.1//EN" "http://www.w3.org/Graphics/SVG/1.1/DTD/svg11.dtd"><svg class="icon" width="200px" height="200.00px" viewBox="0 0 1024 1024" version="1.1" xmlns="http://www.w3.org/2000/svg"><path fill="#000000" d="M819.08 325.32l0.12-0.12c82.92 154.18 46.11 350.1-96.16 462.13-118.56 93.32-276.65 101.86-401.5 34.55l6.41-6.4c-91.34 64.61-165.45 99.15-189.98 74.59-24.58-24.58-0.58-92.72 57.15-181.51-110.61-158.42-80.03-377.37 73.71-498.41 130.26-102.58 308.24-102.8 437.42-12.44 88.44-57.39 156.28-81.17 180.78-56.68 24.84 24.84-6.19 95.81-67.95 184.29zM702.36 761.11c124.83-98.31 160.4-267.8 94.93-405.52-53.32 71.8-123.58 152.3-199.67 228.41-80.17 80.16-168.51 157.24-246.69 215 111.24 53.66 247.86 43.68 351.43-37.89z m157.5-592.91c-14.33-14.33-76.56 21.98-152.26 78.76l-36.32-25.49c1.62-1.15 3.32-2.41 4.93-3.53-13.89-8.93-28.37-16.66-43.24-23.37l-0.31-0.21-0.05 0.03c-109.63-49.23-242.09-37.58-343.08 41.98-122.63 96.56-158.51 261.57-97.58 397.9l-1.17 1.17 5.4 8.09c5.75 11.88 11.99 23.62 19.26 34.94 0.66-0.96 1.43-1.97 2.11-2.93l25.88 38.78c-55.84 74.45-91.83 135.07-78.27 148.61 28.98 28.98 272.36-167.41 409-304.03 136.62-136.67 314.67-361.71 285.7-390.7z"  /></svg>