<?xml version="1.0" standalone="no"?><!DOCTYPE svg PUBLIC "-//W3C//DTD SVG 1.1//EN" "http://www.w3.org/Graphics/SVG/1.1/DTD/svg11.dtd"><svg class="icon" width="200px" height="200.00px" viewBox="0 0 1024 1024" version="1.1" xmlns="http://www.w3.org/2000/svg"><path fill="#000000" d="M286.2 425.57h139.57c9.63 0 17.45 7.8 17.45 17.45 0 9.63-7.82 17.45-17.45 17.45H286.2c-9.63 0-17.45-7.82-17.45-17.45 0-9.65 7.82-17.45 17.45-17.45z m0-139.57h244.25c9.63 0 17.45 7.8 17.45 17.45 0 9.63-7.82 17.45-17.45 17.45H286.2c-9.63 0-17.45-7.82-17.45-17.45 0-9.65 7.82-17.45 17.45-17.45z m487.11-52.35c-24.15-41.68-69.12-69.78-120.74-69.78H303.65c-77.08 0-139.57 62.49-139.57 139.59v418.71c0 77.08 62.49 139.57 139.57 139.57h348.92c77.08 0 139.57-62.49 139.57-139.57V582.59h34.89v139.57c0 96.34-78.11 174.46-174.46 174.46H303.65c-96.36 0-174.46-78.12-174.46-174.46V303.45c0-96.36 78.11-174.48 174.46-174.48h348.92c71.53 0 132.9 43.09 159.84 104.68h-39.1z"  /><path fill="#000000" d="M512.49 576.83l263.49-263.4c13.5-13.52 30.9-13.38 44.3 0l66.45 66.44c13.4 13.42 13.52 30.78 0 44.3l-263.47 263.4-122.52 33.88c-16.99 3.63-25.79-5.11-22.16-22.12l33.91-122.5z"  /></svg>