<?xml version="1.0" standalone="no"?><!DOCTYPE svg PUBLIC "-//W3C//DTD SVG 1.1//EN" "http://www.w3.org/Graphics/SVG/1.1/DTD/svg11.dtd"><svg class="icon" width="200px" height="200.00px" viewBox="0 0 1024 1024" version="1.1" xmlns="http://www.w3.org/2000/svg"><path fill="#000000" d="M512.25 171.27c24.76 0 49.06 6.77 70.21 19.55l263.96 159.96 0.15 0.09c13.92 8.35 22.56 23.72 22.56 40.1v416.72c-0.16 26-21.33 47.13-47.24 47.13H710.51V719.31c0-71.68-58.31-129.99-129.99-129.99H443.79c-71.68 0-129.99 58.31-129.99 129.99v135.51H202.4c-25.93 0-47.02-21.09-47.02-47.02V390.97c0-16.38 8.65-31.75 22.56-40.1l0.15-0.09L442 190.84a135.891 135.891 0 0 1 70.25-19.57m0-41.49c-31.76 0-63.51 8.52-91.71 25.55L156.6 315.3c-26.55 15.93-42.7 44.69-42.7 75.67V807.8c0 48.9 39.61 88.51 88.51 88.51h152.88v-177c0-48.9 39.61-88.51 88.51-88.51h136.73c48.89 0 88.51 39.61 88.51 88.51v177H821.9c48.9 0 88.51-39.61 88.73-88.51V390.97c0-30.98-16.15-59.74-42.7-75.67L603.96 155.33a177.266 177.266 0 0 0-91.71-25.55z"  /><path fill="#000000" d="M409.2 460.66h-92.74c-18.8-0.66-33.69-16.08-33.69-34.89 0-18.81 14.89-34.24 33.69-34.89h92.74c18.8 0.66 33.69 16.08 33.69 34.89 0 18.81-14.89 34.23-33.69 34.89z"  /></svg>