<?xml version="1.0" standalone="no"?><!DOCTYPE svg PUBLIC "-//W3C//DTD SVG 1.1//EN" "http://www.w3.org/Graphics/SVG/1.1/DTD/svg11.dtd"><svg class="icon" width="200px" height="200.00px" viewBox="0 0 1024 1024" version="1.1" xmlns="http://www.w3.org/2000/svg"><path fill="#000000" d="M753.36 159.11c26.17 0 50.89 10.28 69.6 28.96 18.7 18.65 28.99 43.28 28.99 69.33v99.37c0 26.89-10.33 52.11-29.1 71.02-18.62 18.75-43.29 29.08-69.49 29.08h-99.6c-26.17 0-50.88-10.28-69.6-28.95-18.69-18.65-28.99-43.28-28.99-69.34V257.4c0-26.06 10.3-50.68 29-69.33 18.72-18.67 43.43-28.96 69.58-28.96h99.61m-409.29 0c26.17 0 50.89 10.28 69.6 28.96 18.7 18.65 28.99 43.28 28.99 69.33V357.14l0.01 0.37c0.65 26.3-8.99 51.04-27.16 69.67-18.67 19.14-44.04 29.68-71.45 29.68h-99.6c-26.16 0-50.87-10.28-69.59-28.96-18.7-18.66-29-43.28-29-69.34V257.39c0-26.05 10.3-50.68 28.99-69.33 18.72-18.67 43.43-28.96 69.59-28.96h99.62m0 410.16c26.17 0 50.89 10.28 69.6 28.96 18.7 18.65 28.99 43.28 28.99 69.33v99.75l0.01 0.38c0.64 25.27-8.84 49.27-26.7 67.59-18.81 19.29-44.34 29.92-71.91 29.92h-99.59c-26.17 0-50.89-10.28-69.6-28.95-18.7-18.65-28.99-43.27-28.99-69.32v-99.37c0-26.05 10.3-50.68 28.99-69.33 18.72-18.67 43.43-28.96 69.59-28.96h99.61m409.29-440.15h-99.59c-70.62 0-128.57 57.82-128.59 128.29v101.17c0 70.49 57.94 128.3 128.59 128.3h99.62-0.01c70.62 0 128.59-57.81 128.59-130.09v-99.37c-0.02-70.48-57.97-128.3-128.61-128.3z m-409.29 0h-99.6c-70.63 0-128.59 57.82-128.59 128.29v101.17c0 70.49 57.96 128.3 128.59 128.3h99.62-0.01c72.45 0 130.39-57.81 128.6-130.09v-99.37c-0.01-70.48-57.96-128.3-128.61-128.3z m0 410.15h-99.6c-70.63 0-128.59 57.82-128.59 128.29v99.37c0 70.46 57.95 128.28 128.6 128.28h99.59c72.45 0 130.39-57.81 128.6-128.28v-99.37c0-70.46-57.95-128.29-128.6-128.29zM837.25 624.65H571.23c-15 0-28.11-12.49-28.11-26.78 0-14.28 13.12-26.78 28.11-26.78h267.9c15 0 28.11 12.51 28.11 26.78-0.01 14.3-14.99 26.78-29.99 26.78z m-44.96 119.66H571.23c-15 0-28.11-12.51-28.11-26.81 0-14.28 13.12-26.78 28.11-26.78H792.3c15 0 28.11 12.51 28.11 26.78-0.01 14.31-13.12 26.81-28.12 26.81zM681.75 865.74H571.23c-15 0-28.11-12.5-28.11-26.78 0-14.3 13.12-26.78 28.11-26.78h110.53c15 0 28.11 12.49 28.11 26.78-0.01 14.28-13.12 26.78-28.12 26.78z"  /></svg>