<?xml version="1.0" standalone="no"?><!DOCTYPE svg PUBLIC "-//W3C//DTD SVG 1.1//EN" "http://www.w3.org/Graphics/SVG/1.1/DTD/svg11.dtd"><svg class="icon" width="200px" height="200.00px" viewBox="0 0 1024 1024" version="1.1" xmlns="http://www.w3.org/2000/svg"><path fill="#000000" d="M501.63 863.12c-65.82 0-126.2-14.86-178.85-40.71L162.53 894.4c-0.6 0.26-1.22 0.21-1.79 0.39-1.23 0.38-2.4 0.74-3.69 0.82-1.2 0.1-2.32-0.05-3.5-0.22-0.68-0.09-1.35 0.05-2.03-0.12-0.27-0.09-0.46-0.27-0.72-0.36-1.32-0.43-2.46-1.1-3.64-1.81-0.67-0.43-1.39-0.74-1.98-1.25-1.03-0.84-1.81-1.91-2.61-3-0.48-0.67-1.01-1.25-1.4-1.96-0.19-0.38-0.53-0.62-0.7-0.99-0.43-0.98-0.43-1.98-0.65-2.97-0.19-0.72-0.41-1.4-0.48-2.13-0.17-1.63-0.02-3.21 0.29-4.77 0.09-0.41-0.03-0.8 0.09-1.22l0.39-1.52c0.03-0.07 0.03-0.14 0.07-0.21l43.8-163.83c0.26-1.01 0.89-1.75 1.32-2.66-42.84-59.77-67.69-132.37-67.69-211.04 0-202.98 162.7-367.56 384.02-367.56s384.02 164.58 384.02 367.56c0 203.01-162.71 367.57-384.02 367.57z m0-701.7c-202.86 0-350.64 149.59-350.64 334.13 0 76.67 25.79 147.09 70.15 203.46 0 0-2.52 10-4.89 18.92l-35.16 131.52 132.96-59.72c8.21-3.69 28.14 5.03 28.14 5.03 47.14 22.17 100.88 34.96 159.44 34.96 202.86 0 350.62-149.59 350.62-334.16-0.01-184.55-147.76-334.14-350.62-334.14z"  /><path fill="#000000" d="M587.52 544.5c-17.29 0-31.32-15.09-31.32-33.7 0-18.63 14.02-33.72 31.32-33.72 17.28 0 31.3 15.09 31.3 33.72 0 18.62-14.02 33.7-31.3 33.7z m-171.78 0c-17.28 0-31.3-15.09-31.3-33.7 0-18.63 14.02-33.72 31.3-33.72 17.29 0 31.3 15.09 31.3 33.72 0 18.62-14 33.7-31.3 33.7z"  /></svg>