<?xml version="1.0" standalone="no"?><!DOCTYPE svg PUBLIC "-//W3C//DTD SVG 1.1//EN" "http://www.w3.org/Graphics/SVG/1.1/DTD/svg11.dtd"><svg class="icon" width="200px" height="200.00px" viewBox="0 0 1024 1024" version="1.1" xmlns="http://www.w3.org/2000/svg"><path fill="#000000" d="M896.18 860.13H518.26V732.39h233.08c87.27 0 158.01-70.73 158.01-158.01V288c0-87.25-70.73-158.01-158.01-158.01H277.32c-87.27 0-158.01 70.76-158.01 158.01v286.39c0 87.27 70.73 158.01 158.01 158.01H491.6v127.74H132.49c-9.43 0-17.1 7.67-17.1 17.1v3.32c0 9.43 7.67 17.1 17.1 17.1h763.69c9.43 0 17.1-7.67 17.1-17.1v-3.32c0-9.44-7.67-17.11-17.1-17.11zM187.82 663.89c-23.91-23.91-37.07-55.69-37.07-89.51V288c0-33.8 13.17-65.59 37.07-89.5 23.91-23.91 55.69-37.08 89.5-37.08h474.02c33.81 0 65.6 13.17 89.5 37.08 23.91 23.91 37.07 55.69 37.07 89.5v286.39c0 33.81-13.17 65.6-37.07 89.51-23.9 23.91-55.69 37.07-89.51 37.07H277.32c-33.81-0.01-65.6-13.18-89.5-37.08z"  /><path fill="#000000" d="M709.29 338.06l-26.6-26.63-187.16 187.33-109.66-109.75-26.59 26.6 133.01 133.17 0.96-0.96 3.23 3.23z"  /></svg>