<?xml version="1.0" standalone="no"?><!DOCTYPE svg PUBLIC "-//W3C//DTD SVG 1.1//EN" "http://www.w3.org/Graphics/SVG/1.1/DTD/svg11.dtd"><svg class="icon" width="200px" height="200.00px" viewBox="0 0 1024 1024" version="1.1" xmlns="http://www.w3.org/2000/svg"><path fill="#000000" d="M650.55 897.78h-276.1c-135.06 0-244.57-109.51-244.57-244.59V377.11c0-135.08 109.5-244.57 244.57-244.57h120.67c9.6 0 17.4 7.78 17.4 17.4 0 9.6-7.8 17.4-17.4 17.4H368.49c-112.56 0-203.81 91.24-203.81 203.81v288.03c0 112.56 91.26 203.81 203.81 203.81h288.04c112.56 0 203.81-91.26 203.81-203.81V532.55c0-9.62 7.8-17.4 17.4-17.4s17.4 7.78 17.4 17.4V653.2c-0.01 135.07-109.5 244.58-244.59 244.58z m227.19-556.54c-9.6 0-17.4-7.8-17.4-17.4V191.32L373.19 678.4c-6.8 6.78-17.81 6.78-24.59 0-6.8-6.78-6.8-17.81 0-24.59l486.57-486.49H703.82c-9.6 0-17.4-7.8-17.4-17.4 0-9.62 7.8-17.4 17.4-17.4h172.39c2.8-0.19 5.58 0.19 8.19 1.34 1.86 0.79 3.5 1.96 4.95 3.3 0.1 0.09 0.24 0.12 0.33 0.21 0.02 0 0.02 0.02 0.02 0.02 3.3 3.17 5.42 7.57 5.42 12.52v173.92c0.01 9.62-7.78 17.41-17.38 17.41z"  /></svg>