<?xml version="1.0" standalone="no"?><!DOCTYPE svg PUBLIC "-//W3C//DTD SVG 1.1//EN" "http://www.w3.org/Graphics/SVG/1.1/DTD/svg11.dtd"><svg class="icon" width="200px" height="200.00px" viewBox="0 0 1024 1024" version="1.1" xmlns="http://www.w3.org/2000/svg"><path fill="#000000" d="M907.89 547.21c-0.99 10.45-2.35 20.79-4.03 31.02a389.101 389.101 0 0 1-7.35 34.96c-38.11 1.54-76.96 24.64-99.84 64.5-22.94 39.96-23.37 85.47-5.5 119.43a399.468 399.468 0 0 1-54 44.77c-4.21 2.88-8.61 5.5-12.94 8.24-5.48 3.48-10.98 6.95-16.65 10.16-5.37 3.04-10.89 5.85-16.4 8.64-4.84 2.46-9.72 4.84-14.69 7.11-6.03 2.74-12.11 5.34-18.29 7.78-12.9 5.11-26.12 9.49-39.64 13.24-20.38-32.45-59.72-54.74-105.54-54.74-45.82 0-85.17 22.29-105.54 54.74-13.52-3.75-26.74-8.13-39.64-13.24-6.19-2.44-12.28-5.04-18.29-7.78-4.97-2.26-9.84-4.65-14.69-7.11-5.51-2.79-11.03-5.6-16.4-8.64-5.67-3.22-11.17-6.68-16.65-10.16-4.33-2.74-8.73-5.34-12.94-8.24a400.087 400.087 0 0 1-54-44.77c17.87-33.97 17.43-79.47-5.51-119.43-22.89-39.86-61.74-62.96-99.84-64.5a396.152 396.152 0 0 1-7.34-34.96 457.838 457.838 0 0 1-4.03-31.02c-0.94-11.22-1.71-22.5-1.71-33.97 0-11.51 0.78-22.82 1.71-34.09 1.01-10.52 2.39-20.94 4.08-31.25 1.94-11.84 4.42-23.49 7.39-34.96 38.07-1.57 76.87-24.67 99.74-64.5 22.89-39.86 23.38-85.25 5.66-119.18 16.6-16.4 34.59-31.35 53.84-44.63 4.33-2.99 8.86-5.66 13.29-8.47 5.37-3.39 10.76-6.8 16.31-9.95 5.44-3.08 11.01-5.92 16.61-8.73 4.77-2.44 9.6-4.79 14.49-7.02 6.04-2.76 12.18-5.37 18.4-7.83 12.92-5.11 26.18-9.49 39.73-13.24 20.41 32.27 59.67 54.42 105.32 54.42s84.89-22.15 105.32-54.42c13.56 3.75 26.81 8.13 39.73 13.24 6.22 2.46 12.34 5.07 18.4 7.83 4.9 2.23 9.72 4.6 14.49 7.02 5.6 2.81 11.17 5.66 16.61 8.73 5.55 3.15 10.94 6.56 16.31 9.95 4.44 2.81 8.96 5.48 13.27 8.47 9.46 6.5 18.66 13.34 27.48 20.64 9.17 7.56 17.92 15.62 26.37 23.98-17.73 33.94-17.25 79.32 5.66 119.18 22.85 39.82 61.67 62.92 99.74 64.5 2.97 11.47 5.44 23.12 7.39 34.96 1.7 10.3 3.08 20.73 4.08 31.25 0.94 11.28 1.7 22.59 1.7 34.09 0.03 11.48-0.73 22.76-1.67 33.98z m-39.76-103.15c-40-9.77-77.57-37.1-101.26-78.33-23.68-41.24-28.44-87.63-16.84-127.35-34.48-30.15-74.78-53.63-118.81-69.06-28.41 30-70.79 49.09-118.2 49.09-47.42 0-89.79-19.09-118.19-49.08-44.03 15.43-84.33 38.9-118.83 69.07 11.59 39.7 6.84 86.09-16.84 127.33s-61.26 68.56-101.24 78.33c-4.26 22.32-6.68 45.34-6.68 68.91 0 23.65 2.42 46.71 6.72 69.11 39.98 9.76 77.54 37.08 101.21 78.3 23.67 41.2 28.44 87.53 16.9 127.21 34.52 30.17 74.83 53.64 118.92 69.07 28.4-29.91 70.72-48.94 118.05-48.94s89.65 19.04 118.05 48.94c44.06-15.43 84.4-38.9 118.92-69.07-11.54-39.68-6.79-86.01 16.88-127.21 23.68-41.22 61.24-68.54 101.22-78.32 4.29-22.39 6.72-45.44 6.72-69.09-0.02-23.57-2.45-46.57-6.7-68.91z m-355.11 207.4c-76.04 0-137.67-61.99-137.67-138.41 0-76.41 61.63-138.38 137.67-138.38 76.02 0 137.65 61.97 137.65 138.38 0 76.42-61.63 138.41-137.65 138.41z m0-242.07c-56.97 0-103.13 46.43-103.13 103.66 0 57.27 46.17 103.68 103.13 103.68 56.95 0 103.11-46.41 103.11-103.68 0.01-57.23-46.16-103.66-103.11-103.66z"  /></svg>