<?xml version="1.0" standalone="no"?><!DOCTYPE svg PUBLIC "-//W3C//DTD SVG 1.1//EN" "http://www.w3.org/Graphics/SVG/1.1/DTD/svg11.dtd"><svg class="icon" width="200px" height="200.00px" viewBox="0 0 1024 1024" version="1.1" xmlns="http://www.w3.org/2000/svg"><path fill="#000000" d="M350.15 272.88c-1.69 0.51-4.12 1.4-7.23 2.67-4.73 1.97-9.83 4.44-15.17 7.49-14.84 8.43-28.98 19.69-41.34 34.13-18.48 21.6-31.25 48.48-36.73 80.98-1.45 8.59 6.48 15.76 17.72 16.03 11.22 0.26 21.47-6.48 22.9-15.05 4.65-27.65 15.12-49.68 29.84-66.88 9.23-10.8 19.55-19.01 30.06-24.98 3.54-2.02 6.79-3.61 9.63-4.77 1.47-0.61 2.3-0.91 2.37-0.92 10.8-3.33 16.88-12.4 13.53-20.34-3.29-7.95-14.76-11.67-25.58-8.36m333.39 229.01c-19.98 197.07-153.33 340.48-313.06 340.48-183.98 0-263.55-107.53-244.89-307.4 9.18-98.16 49.98-192.52 110.75-264.06 57.15-67.26 125.92-106.66 184.96-106.66 91.52 0 162.51 43.26 209.69 118.55 40.58 64.74 59.62 149.3 52.55 219.09m35.97 4.06c7.84-77.39-12.89-169.61-57.59-241.03-53.51-85.54-136.06-135.9-241.05-135.9-71.66 0-149.91 44.9-213.3 119.62-65.16 76.79-108.71 177.68-118.54 282.82-20.41 218.9 74 346.67 281.49 346.67 180.14 0 327.37-158.55 348.99-372.18m207.19 76.77c-25.7-73.74-90.9-135.85-179.84-150.78 1.52 13.6 4.66 33.69 4.82 46.58 70.65 13.93 121.12 53.02 141.44 112.6 30.2 88.59 0.78 204.68-135.22 250.19-38.63 12.92-79.36 19.48-121.05 19.48-27.47 0-54.26-3.05-79.36-8.52-16.01 10.07-36.56 15.78-53.86 22.8 38.86 13.06 83.09 20.45 129.29 20.45 46.07 0 91.16-7.11 133.95-21.13 161.28-52.79 195.9-188.22 159.83-291.67z"  /></svg>