<?xml version="1.0" standalone="no"?><!DOCTYPE svg PUBLIC "-//W3C//DTD SVG 1.1//EN" "http://www.w3.org/Graphics/SVG/1.1/DTD/svg11.dtd"><svg class="icon" width="200px" height="200.00px" viewBox="0 0 1024 1024" version="1.1" xmlns="http://www.w3.org/2000/svg"><path fill="#000000" d="M510 898.64c-211.61 0-383.15-171.55-383.15-383.15 0-211.62 171.55-383.15 383.15-383.15s383.15 171.53 383.15 383.15c0.01 211.6-171.54 383.15-383.15 383.15z m0.28-733.12c-193.13 0-349.7 156.56-349.7 349.68s156.58 349.69 349.7 349.69c193.11 0 349.68-156.56 349.68-349.68S703.4 165.52 510.28 165.52z"  /><path fill="#000000" d="M614.93 388c19.99 17.33 29.99 41.17 29.99 71.49 0 24.34-6.33 44.67-19 60.99-4.33 5.33-18.33 18.34-41.98 38.99-9.33 7.68-16.33 16.33-20.99 25.99-5.33 9.67-8 20.67-8 33v8.5h-53.48v-8.5c0-19.33 3.32-35.16 9.99-47.5 6.33-13.33 25.16-34 56.47-61.99l8.5-9.5c9.32-12 14-24.16 14-36.5 0-17-4.83-30.67-14.49-41-9.99-10-24.16-14.99-42.48-14.99-22.66 0-38.98 7.17-48.97 21.5-8.99 12-13.5 29-13.5 51h-52.48c0-36.33 10.49-65 31.48-85.99 20.99-21.32 49.97-31.99 86.96-31.99 32.33 0 58.32 8.83 77.98 26.5z m-60.47 275.98c7 6.34 10.49 14.83 10.49 25.5 0 10-3.67 18.67-10.99 25.99-7.34 6.67-15.99 10-25.98 10-10.33 0-18.99-3.5-25.98-10.5-7-7-10.49-15.5-10.49-25.5 0-10.66 3.49-19.17 10.49-25.5 6.66-6.67 15.32-10 25.98-10 10.98 0.01 19.81 3.34 26.48 10.01z"  /></svg>