<?xml version="1.0" standalone="no"?><!DOCTYPE svg PUBLIC "-//W3C//DTD SVG 1.1//EN" "http://www.w3.org/Graphics/SVG/1.1/DTD/svg11.dtd"><svg class="icon" width="200px" height="200.00px" viewBox="0 0 1024 1024" version="1.1" xmlns="http://www.w3.org/2000/svg"><path fill="#000000" d="M852.21 904.64h-684.7c-37.68 0-68.33-30.66-68.33-68.35V414.92c0-37.69 30.65-68.35 68.33-68.35h351.13c8.66 0 15.67 7.02 15.67 15.67 0 8.66-7.02 15.67-15.67 15.67H167.51c-20.4 0-36.99 16.6-36.99 37v421.37c0 20.4 16.59 37 36.99 37h684.7c20.4 0 37-16.6 37-37V414.92c0-20.4-16.6-37-37-37h-61.44c-8.66 0-15.67-7.02-15.67-15.67 0-8.66 7.02-15.67 15.67-15.67h61.44c37.69 0 68.35 30.66 68.35 68.35V836.3c-0.01 37.68-30.67 68.34-68.35 68.34z"  /><path fill="#000000" d="M667.71 138.51c36.37 0 65.84 29.5 65.84 65.85v434.55H601.86V204.36c0-36.36 29.48-65.85 65.85-65.85zM667.86 757.28l65.68-118.37H601.86l66 118.37zM378 520.39H219.98c-7.27 0-13.17 5.9-13.17 13.17 0 7.28 5.9 13.17 13.17 13.17H378c7.27 0 13.17-5.89 13.17-13.17 0-7.27-5.9-13.17-13.17-13.17z m52.68 105.36h-210.7c-7.27 0-13.17 5.9-13.17 13.17s5.9 13.17 13.17 13.17h210.69c7.27 0 13.17-5.9 13.17-13.17s-5.89-13.17-13.16-13.17z m79.01 105.34h-289.7c-7.27 0-13.17 5.9-13.17 13.17s5.9 13.17 13.17 13.17h289.7c7.27 0 13.17-5.9 13.17-13.17s-5.9-13.17-13.17-13.17z"  /></svg>