<?xml version="1.0" standalone="no"?><!DOCTYPE svg PUBLIC "-//W3C//DTD SVG 1.1//EN" "http://www.w3.org/Graphics/SVG/1.1/DTD/svg11.dtd"><svg class="icon" width="200px" height="200.00px" viewBox="0 0 1024 1024" version="1.1" xmlns="http://www.w3.org/2000/svg"><path fill="#000000" d="M513.14 157.86c44.51 0 86.35 17.33 117.82 48.81 31.47 31.48 48.8 73.33 48.8 117.86v24.88c0 44.5-17.33 86.34-48.8 117.81s-73.31 48.8-117.82 48.8h-0.28c-44.51 0-86.36-17.33-117.83-48.81-31.47-31.47-48.81-73.31-48.81-117.81v-24.88c0-44.52 17.33-86.38 48.81-117.86 31.47-31.48 73.32-48.81 117.83-48.81h0.28m45.59 457.38c37.08 0 73.26 6.64 107.53 19.74 33.1 12.65 63.5 30.94 90.36 54.36 52.1 45.44 87.08 107.31 99.09 174.98H170.29c12.02-67.67 46.99-129.54 99.09-174.98 26.86-23.42 57.26-41.71 90.36-54.36 34.27-13.1 70.44-19.74 107.53-19.74h91.46m-45.59-489.37h-0.28c-109.71 0-198.64 88.94-198.64 198.67v24.88c0 109.68 88.94 198.61 198.64 198.61h0.28c109.71 0 198.61-88.94 198.61-198.61v-24.88c0-109.74-88.9-198.67-198.61-198.67z m45.59 457.37h-91.47c-167.71 0-306.07 123.69-329.99 284.74-2.5 3.01-4.22 6.64-4.22 10.78 0 2.84 0.87 5.43 2.14 7.82-0.28 3.26-0.87 6.45-1.07 9.74h757.76c-0.2-3.29-0.79-6.47-1.1-9.74 1.29-2.39 2.17-4.98 2.17-7.82 0-4.14-1.72-7.77-4.22-10.78-23.93-161.05-162.28-284.74-330-284.74z"  /></svg>