<?xml version="1.0" standalone="no"?><!DOCTYPE svg PUBLIC "-//W3C//DTD SVG 1.1//EN" "http://www.w3.org/Graphics/SVG/1.1/DTD/svg11.dtd"><svg class="icon" width="200px" height="200.00px" viewBox="0 0 1024 1024" version="1.1" xmlns="http://www.w3.org/2000/svg"><path fill="#ffffff" d="M512.3 166.21c52.19 0 101.25 20.32 138.16 57.23 36.9 36.9 57.23 85.97 57.23 138.16 0 59.43-26.59 114.93-72.96 152.26a33.993 33.993 0 0 0-12.43 30.58 33.981 33.981 0 0 0 19.38 26.72c42.52 19.83 78.55 51.15 104.18 90.59 26.29 40.43 40.18 87.42 40.17 135.9 0 36.47-29.67 66.14-66.14 66.14H306.1c-36.47 0-66.14-29.67-66.14-66.14 0-48.32 13.81-95.19 39.94-135.54 25.48-39.35 61.32-70.67 103.63-90.57 10.62-5 17.91-15.12 19.29-26.77a33.964 33.964 0 0 0-12.52-30.53c-46.65-37.34-73.41-92.97-73.41-152.62 0-52.19 20.33-101.26 57.23-138.16 36.93-36.92 85.99-57.25 138.18-57.25m0-34c-126.68 0-229.4 102.69-229.4 229.39 0 72.5 33.65 137.13 86.16 179.17-96.38 45.35-163.1 143.31-163.1 256.88 0 55.31 44.83 100.14 100.14 100.14h413.8c55.31 0 100.14-44.83 100.14-100.14 0.01-113.91-67.13-212.13-163.99-257.3 52.22-42.05 85.64-106.49 85.64-178.75 0-126.69-102.71-229.39-229.39-229.39z"  /><path fill="#ffffff" d="M513.49 477.65c-63.09 0-84.41-33.61-85.28-35.05-2.77-4.52-1.34-10.43 3.18-13.2 4.5-2.75 10.36-1.37 13.15 3.1 0.8 1.24 17.53 25.96 68.96 25.96 50.39 0 67.87-25.08 68.59-26.15 2.87-4.45 8.78-5.7 13.25-2.83 4.45 2.87 5.71 8.86 2.84 13.31-0.93 1.43-23.18 34.86-84.69 34.86z"  /></svg>